<svg id="Layer_1" data-name="Layer 1" xmlns="http://www.w3.org/2000/svg" viewBox="0 0 300 300"><defs><style>.cls-1{fill:#ffe117;}</style></defs><title>Artboard 9</title><path class="cls-1" d="M95.84,198.64h19.1l13-28.8h44.31l12.69,28.8H204.1L150,82.35Zm56.46-75.07q1.07,3.17,2.07,5.62l11.46,25.52H134.65l11.46-25.52q1.07-2.67,2.1-5.84t1.95-6.84q1.07,3.89,2.14,7.07M150,34.65A115.35,115.35,0,1,0,265.35,150,115.48,115.48,0,0,0,150,34.65m0,208.13A92.78,92.78,0,1,1,242.78,150,92.88,92.88,0,0,1,150,242.78"/></svg>