<svg id="Layer_1" data-name="Layer 1" xmlns="http://www.w3.org/2000/svg" viewBox="0 0 300 300"><defs><style>.cls-1{fill:#ffe117;}</style></defs><title>Artboard 7</title><path class="cls-1" d="M150,271.75l-6.93-4.86C129.7,257.52,13.07,173.46,22,100.36a72.91,72.91,0,0,1,128-47,72.91,72.91,0,0,1,128,47c8.94,73.09-107.69,157.15-121.07,166.53ZM94.92,52.4a48.83,48.83,0,0,0-48.77,48.77L46,102.79c-6.31,46.72,67.35,112.1,104,139.32,36.61-27.24,110.27-92.67,104-139.32l-.11-1.61a48.77,48.77,0,0,0-88.7-28,18.56,18.56,0,0,1-30.3,0A48.85,48.85,0,0,0,94.92,52.4"/></svg>