<svg id="Layer_1" data-name="Layer 1" xmlns="http://www.w3.org/2000/svg" viewBox="0 0 300 300"><defs><style>.cls-1{fill:#ffe117;}</style></defs><title>Artboard 5</title><path class="cls-1" d="M96.36,121.23a20.19,20.19,0,0,1,20.55-20.55,20.31,20.31,0,0,1,14.9,5.91,19.81,19.81,0,0,1,6,14.65,20.61,20.61,0,0,1-20.86,20.86A19.68,19.68,0,0,1,102.32,136a20.31,20.31,0,0,1-6-14.8m0,65.26a20.06,20.06,0,0,1,5.91-14.7,19.81,19.81,0,0,1,14.65-6,20.23,20.23,0,0,1,14.9,6,20.86,20.86,0,0,1-14.9,35.56,19.68,19.68,0,0,1-14.59-6.06,20.31,20.31,0,0,1-6-14.8m47.88,49.43a127.22,127.22,0,0,0,21.69-39.46q7-21.06,7-46.35,0-26.31-7.19-47.27a123.36,123.36,0,0,0-22.51-39.26l23.48-15.11q18.79,22.71,27.87,47.63a156.54,156.54,0,0,1,9.08,54A155.79,155.79,0,0,1,194.56,204q-9.09,24.87-27.87,47.58Z"/></svg>