<svg version="1.1"
	 xmlns="http://www.w3.org/2000/svg" xmlns:xlink="http://www.w3.org/1999/xlink" xmlns:a="http://ns.adobe.com/AdobeSVGViewerExtensions/3.0/"
	 x="0px" y="0px" width="75.9px" height="84.5px" viewBox="0 0 75.9 84.5" style="enable-background:new 0 0 75.9 84.5;"
	 xml:space="preserve">
<style type="text/css">
	.st0{fill:#FFE117;}
</style>
<defs>
</defs>
<rect y="36.9" class="st0" width="34.5" height="11.4"/>
<path class="st0" d="M71.7,22.3C68.9,16.5,64.9,11.7,59.5,8C55.4,5.1,50.6,3,45.2,1.8C40.5,0.7,10.4,0.1,0,0v18.8h26.4
	c9,0,15.6,1.9,19.8,5.7c4.2,3.8,6.2,9.7,6.2,17.8s-2.1,14-6.2,17.7c-4.2,3.7-10.8,5.6-19.8,5.6H0v18.9c10.3,0,40.5-0.6,45.6-1.8
	c5.2-1.2,9.9-3.2,14-6.1c5.3-3.7,9.4-8.5,12.2-14.3c2.8-5.8,4.2-12.5,4.2-19.9C75.9,34.8,74.5,28.2,71.7,22.3"/>
</svg>
