<svg version="1.1"
	 xmlns="http://www.w3.org/2000/svg" xmlns:xlink="http://www.w3.org/1999/xlink" xmlns:a="http://ns.adobe.com/AdobeSVGViewerExtensions/3.0/"
	 x="0px" y="0px" width="198px" height="46.2px" viewBox="0 0 198 46.2" style="enable-background:new 0 0 198 46.2;"
	 xml:space="preserve">
<style type="text/css">
	.st0{fill:#FFE117;}
</style>
<defs>
</defs>
<path class="st0" d="M34.4,4.6c0-1.3,0.5-2.3,1.4-3.2C36.6,0.4,37.7,0,39,0c1.3,0,2.4,0.4,3.3,1.3c0.9,0.9,1.3,2,1.3,3.3
	c0,1.3-0.4,2.4-1.4,3.3c-0.9,0.9-2,1.4-3.3,1.4c-1.3,0-2.3-0.5-3.2-1.4C34.8,6.9,34.4,5.8,34.4,4.6 M34.8,12h8.4v23.7h-8.4V12z"/>
<path class="st0" d="M73,12v23.7c0,3.6-1.1,6.2-3.3,7.9c-2.2,1.7-5.6,2.6-10.1,2.6c-3.7,0-6.6-0.7-8.7-2.1c-2.1-1.4-3.2-3.3-3.3-5.8
	h8.7c0.1,0.7,0.5,1.3,1.2,1.7c0.7,0.4,1.6,0.6,2.8,0.6c1.8,0,3-0.4,3.7-1.3c0.7-0.9,1-2.7,1-5.5v-2.2c-0.9,1.5-2,2.6-3.4,3.3
	c-1.4,0.7-3,1.1-4.9,1.1c-3.1,0-5.6-1.1-7.5-3.4c-1.9-2.3-2.8-5.3-2.8-9.1c0-3.8,1-6.8,3-9.1c2-2.2,4.6-3.4,8-3.4
	c1.8,0,3.3,0.4,4.6,1.1c1.3,0.7,2.4,1.9,3.3,3.5V12H73z M65.7,23.8c0-1.8-0.5-3.3-1.5-4.3c-1-1-2.3-1.6-4.1-1.6
	c-1.7,0-3.1,0.5-4.1,1.6c-1,1-1.5,2.5-1.5,4.3c0,1.8,0.5,3.2,1.5,4.3c1,1,2.4,1.6,4.1,1.6c1.7,0,3.1-0.5,4-1.6
	C65.2,27,65.7,25.6,65.7,23.8"/>
<path class="st0" d="M77.1,4.6c0-1.3,0.5-2.3,1.4-3.2c0.9-0.9,2-1.3,3.3-1.3C83,0,84.1,0.4,85,1.3c0.9,0.9,1.3,2,1.3,3.3
	c0,1.3-0.4,2.4-1.4,3.3c-0.9,0.9-2,1.4-3.3,1.4c-1.3,0-2.3-0.5-3.2-1.4C77.6,6.9,77.1,5.8,77.1,4.6 M77.5,12h8.4v23.7h-8.4V12z"/>
<path class="st0" d="M121.8,35.7V22.8c0-2.1-0.3-3.5-0.8-4.3c-0.5-0.8-1.4-1.2-2.6-1.2c-1.6,0-2.7,0.5-3.3,1.6
	c-0.6,1.1-0.9,3.3-0.9,6.7v10.1h-8.1V22.8c0-2.1-0.3-3.5-0.8-4.3c-0.5-0.8-1.4-1.2-2.6-1.2c-1.6,0-2.7,0.5-3.3,1.6
	c-0.6,1.1-0.9,3.3-0.9,6.7v10.1h-8.1V12h8.2v4.1c1-1.7,2.1-2.9,3.4-3.7c1.3-0.8,2.8-1.2,4.6-1.2c1.9,0,3.5,0.4,4.7,1.1
	c1.2,0.7,2.1,1.9,2.6,3.3c0.9-1.5,2-2.6,3.4-3.4c1.3-0.7,2.9-1.1,4.7-1.1c1.4,0,2.7,0.2,3.7,0.7c1.1,0.5,2,1.2,2.7,2.1
	c0.6,0.8,1,1.6,1.2,2.6c0.2,1,0.4,2.6,0.4,4.9v0.5v13.6H121.8z"/>
<path class="st0" d="M158.7,12v23.7H151v-3.9c-1.1,1.6-2.3,2.8-3.7,3.6c-1.4,0.8-3,1.2-4.8,1.2c-3.2,0-5.7-1.2-7.6-3.5
	c-1.9-2.3-2.8-5.4-2.8-9.3c0-3.9,1-6.9,3-9.2c2-2.3,4.6-3.4,8-3.4c1.8,0,3.3,0.4,4.6,1.1c1.3,0.8,2.4,1.9,3.3,3.5V12H158.7z
	 M151.4,23.8c0-1.8-0.5-3.3-1.5-4.4c-1-1.1-2.3-1.6-4-1.6c-1.7,0-3.1,0.5-4,1.6c-1,1.1-1.5,2.5-1.5,4.4c0,1.8,0.5,3.3,1.5,4.4
	c1,1.1,2.3,1.6,4,1.6c1.7,0,3.1-0.5,4-1.6C150.9,27.1,151.4,25.7,151.4,23.8"/>
<path class="st0" d="M163.1,35.7V12h7.9v5.6c0.8-2,1.9-3.6,3.3-4.6c1.4-1,3.1-1.5,5.1-1.5c0.3,0,0.7,0,1,0c0.3,0,0.7,0.1,1,0.1
	l-0.8,7.6c-0.5-0.2-1-0.3-1.5-0.4c-0.5-0.1-1-0.1-1.4-0.1c-2,0-3.6,0.6-4.7,1.9c-1.1,1.2-1.7,3-1.7,5.3v9.8H163.1z"/>
<polygon class="st0" points="186.2,35.7 186.2,17.9 182.7,17.9 182.7,12 186.2,12 186.2,4.9 194.5,4.9 194.5,12 198,12 198,17.9 
	194.5,17.9 194.5,35.7 "/>
<rect x="0" y="16.4" class="st0" width="14" height="4.6"/>
<path class="st0" d="M29.2,10.4c-1.1-2.4-2.8-4.3-5-5.8c-1.7-1.2-3.6-2-5.8-2.5C16.5,1.6,4.2,1.4,0,1.3V9h10.7
	c3.7,0,6.4,0.8,8.1,2.3c1.7,1.5,2.5,3.9,2.5,7.2c0,3.3-0.8,5.7-2.5,7.2c-1.7,1.5-4.4,2.3-8.1,2.3H0v7.7c4.2,0,16.5-0.3,18.5-0.7
	c2.1-0.5,4-1.3,5.7-2.5c2.2-1.5,3.8-3.5,5-5.8c1.1-2.4,1.7-5.1,1.7-8.1C30.9,15.5,30.3,12.8,29.2,10.4"/>
</svg>
