<svg id="Layer_1" data-name="Layer 1" xmlns="http://www.w3.org/2000/svg" viewBox="0 0 300 300"><defs><style>.cls-1{fill:#ffe117;}</style></defs><title>Artboard 8</title><path class="cls-1" d="M166.58,144.57l44.29,63.21H181.38l-21.9-31-1-1.5q-6.34-9.58-8.21-14.68-2.49,4.74-4.79,8.78t-4.66,7.53l-21.4,30.86H89.56l44.67-63.46L96,89.82h29.74l16.55,24.38q2.61,3.73,4.6,7.21t3.61,7.09q1.49-3,3.42-6.28t4.91-8.27l16.43-24.14h29.49ZM271.75,150A121.75,121.75,0,1,1,150,28.25,121.89,121.89,0,0,1,271.75,150m-23.82,0A97.93,97.93,0,1,0,150,247.93,98,98,0,0,0,247.93,150"/></svg>