<svg id="Layer_1" data-name="Layer 1" xmlns="http://www.w3.org/2000/svg" viewBox="0 0 300 300"><defs><style>.cls-1{fill:#ffe117;}</style></defs><title>Artboard 6</title><path class="cls-1" d="M149.94,266.28a521.27,521.27,0,0,1-50.11-40.62c-19.39-17.8-37.48-36.79-52.2-58.72-9.2-13.72-17-28.17-20.28-44.53-4.12-20.54-1.13-40.15,9.62-58.2,14.55-24.43,40.33-33.44,66.59-29.66,19,2.74,36.06,13.67,46.42,32.91.41-.61.79-1.1,1.09-1.63,11.72-20.34,29.54-30.83,52.75-32,19.4-1,36.66,4.58,50.44,18.83,11.35,11.73,17.09,26.14,19.37,42.11,2.84,19.87-2.18,38.11-11.31,55.53-11.43,21.79-27,40.43-44.06,57.92A510.15,510.15,0,0,1,151.89,265c-.57.41-1.18.75-2,1.24"/></svg>